<svg width="16" height="16" viewBox="0 0 16 16" fill="none" xmlns="http://www.w3.org/2000/svg">
<g clip-path="url(#clip0)">
<path d="M15.7241 13.2413H0.275874C0.123531 13.2413 0 13.1178 0 12.9655V3.03448C0 2.88214 0.123531 2.75861 0.275874 2.75861H15.7241C15.8764 2.75861 16 2.88214 16 3.03448V12.9655C15.9999 13.1178 15.8764 13.2413 15.7241 13.2413Z" fill="#41479B"/>
<path d="M15.9999 3.03448C15.9999 2.88214 15.8764 2.75861 15.7241 2.75861H14.4898L9.37924 6.10694V2.75861H6.62063V6.10694L1.51006 2.75861H0.275874C0.123531 2.75861 0 2.88214 0 3.03448V3.74795L4.38464 6.62065H0V9.37927H4.38464L0 12.252V12.9655C0 13.1178 0.123531 13.2413 0.275874 13.2413H1.51009L6.62069 9.89302V13.2413H9.37931V9.89302L14.4899 13.2413H15.7241C15.8765 13.2413 16 13.1178 16 12.9655V12.252L11.6154 9.3793H15.9999V6.62068H11.6153L15.9999 3.74795V3.03448Z" fill="#F5F5F5"/>
<path d="M15.9999 7.1724H8.82756V2.75861H7.17238V7.1724H0V8.82755H7.17238V13.2413H8.82756V8.82755H15.9999V7.1724Z" fill="#FF4B55"/>
<path d="M5.5921 9.37927L0.0078125 13.0042C0.0273437 13.1374 0.137187 13.2414 0.275843 13.2414H0.65581L6.60547 9.3793H5.5921V9.37927Z" fill="#FF4B55"/>
<path d="M10.8246 9.37927H9.81125L15.7523 13.2356C15.8908 13.2209 16 13.1078 16 12.9654V12.7386L10.8246 9.37927Z" fill="#FF4B55"/>
<path d="M0 3.33899L5.05557 6.62066H6.06894L0.160718 2.78549C0.0663435 2.82934 0 2.92355 0 3.03446V3.33899Z" fill="#FF4B55"/>
<path d="M10.3926 6.62071L15.9903 2.98707C15.9671 2.85826 15.8596 2.75867 15.7241 2.75867H15.3288L9.37927 6.62071H10.3926Z" fill="#FF4B55"/>
</g>
<defs>
<clipPath id="clip0">
<rect width="16" height="16" fill="white"/>
</clipPath>
</defs>
</svg>
