<svg width="6" height="10" viewBox="0 0 6 10" fill="none" xmlns="http://www.w3.org/2000/svg">
<path d="M5.73153 4.76949L1.0621 0.100268C0.995276 0.0335163 0.918382 0 0.83159 0C0.744764 0 0.667904 0.0335163 0.601117 0.100268L0.100198 0.601293C0.0333057 0.66808 0 0.744799 0 0.831766C0 0.918733 0.0333057 0.995452 0.100198 1.06224L4.03807 5.0001L0.100198 8.93804C0.0333057 9.00483 0 9.08169 0 9.16841C0 9.25534 0.0333057 9.3322 0.100198 9.39899L0.601153 9.89984C0.667939 9.96669 0.744799 10 0.831625 10C0.918417 10 0.995276 9.96662 1.0621 9.89984L5.73129 5.23058C5.79804 5.16383 5.83145 5.08693 5.83145 5.0001C5.83145 4.91328 5.79829 4.83642 5.73153 4.76949Z" fill="url(#paint0_linear)"/>
<defs>
<linearGradient id="paint0_linear" x1="2.91573" y1="0" x2="2.91573" y2="10" gradientUnits="userSpaceOnUse">
<stop stop-color="#436C9D"/>
<stop offset="0.0001" stop-color="#1845BA"/>
<stop offset="1" stop-color="#6B9DD8"/>
</linearGradient>
</defs>
</svg>
