<svg width="16" height="16" viewBox="0 0 16 16" fill="none" xmlns="http://www.w3.org/2000/svg">
<g clip-path="url(#clip0)">
<path d="M13.5538 6.50847C13.5538 8.75503 11.7325 10.5763 9.48598 10.5763C7.23929 10.5763 5.41818 8.75503 5.41818 6.50847C5.41818 4.26191 7.23929 2.44067 9.48598 2.44067C11.7325 2.44067 13.5538 4.26191 13.5538 6.50847Z" fill="#FDD020"/>
<path d="M9.48597 1.62712C9.33608 1.62712 9.21478 1.50569 9.21478 1.35593V0.271186C9.21478 0.121425 9.33608 0 9.48597 0C9.63573 0 9.75716 0.121425 9.75716 0.271186V1.35593C9.75716 1.50569 9.63573 1.62712 9.48597 1.62712Z" fill="#FDD020"/>
<path d="M15.7232 6.77965H14.6385C14.4886 6.77965 14.3673 6.65822 14.3673 6.50846C14.3673 6.3587 14.4886 6.23727 14.6385 6.23727H15.7232C15.873 6.23727 15.9944 6.3587 15.9944 6.50846C15.9944 6.65822 15.873 6.77965 15.7232 6.77965Z" fill="#FDD020"/>
<path d="M12.7402 10.0339C12.5419 10.0339 12.3439 10.0538 12.1495 10.0929C12.0029 9.36135 11.529 8.73728 10.8636 8.39949C10.1984 8.0617 9.41487 8.04753 8.7377 8.36095C8.12488 6.67292 6.25968 5.80137 4.57165 6.41419C2.88362 7.02714 2.01206 8.89234 2.62488 10.5804C1.1462 10.6271 -0.021835 11.8509 0.000278346 13.3302C0.0225241 14.8094 1.22684 15.9976 2.70632 16H12.7402C14.3876 16 15.7233 14.6644 15.7233 13.0169C15.7233 11.3694 14.3876 10.0339 12.7402 10.0339Z" fill="#A3D4F7"/>
<path d="M5.68933 2.71185L4.60458 1.62711L5.68933 2.71185Z" fill="#FDD020"/>
<path d="M5.68935 2.98307C5.61731 2.98307 5.54846 2.95447 5.49761 2.90362L4.41286 1.81887C4.34228 1.75081 4.31408 1.64991 4.33884 1.5551C4.36373 1.46029 4.43775 1.38627 4.53256 1.36151C4.62737 1.33662 4.72814 1.36495 4.79634 1.4354L5.88108 2.52015C5.95855 2.59774 5.98172 2.7144 5.93974 2.8157C5.89777 2.917 5.79899 2.98307 5.68935 2.98307Z" fill="#FDD020"/>
<path d="M13.2826 2.71185L14.3673 1.62711L13.2826 2.71185Z" fill="#FDD020"/>
<path d="M13.2825 2.98307C13.1728 2.98307 13.074 2.917 13.032 2.8157C12.99 2.7144 13.0132 2.59774 13.0908 2.52015L14.1755 1.4354C14.2436 1.36495 14.3444 1.33662 14.4392 1.36151C14.534 1.38627 14.6081 1.46029 14.6329 1.5551C14.6577 1.64991 14.6295 1.75081 14.559 1.81887L13.4743 2.90362C13.4234 2.95447 13.3544 2.98307 13.2825 2.98307Z" fill="#FDD020"/>
</g>
<defs>
<clipPath id="clip0">
<rect width="16" height="16" fill="white"/>
</clipPath>
</defs>
</svg>
